<?xml version="1.0" encoding="UTF-8"?><svg id="Layer_1" xmlns="http://www.w3.org/2000/svg" viewBox="0 0 321.98 322.14"><defs><style>.cls-1{fill:#fff;}</style></defs><rect class="cls-1" width="321.98" height="321.98"/><g><path d="M316.86,71.89c-.11,13.34-2.74,26.33-5.23,39.36-8.28,43.23-23.77,83.94-43.1,123.3-2.56,5.21-5.4,10.29-8.17,15.4-.4,.74-1.06,1.49-1.79,1.88-7.18,3.83-14.53,7.14-22.63,8.74-11.44,2.27-22.74,5.32-34.21,7.39-9.17,1.66-18.41,3.34-27.84,2.92-9.5-.43-19.06-.29-28.51-1.21-12.19-1.19-24.36-2.83-36.41-4.99-5.09-.91-9.9-3.51-14.75-5.58-9.13-3.89-18.23-7.87-27.23-12.03-1.54-.71-3.11-2.3-3.76-3.85-10.83-26.07-21.55-52.18-32.23-78.32-9.49-23.23-14.9-47.62-20.17-72.04-1.63-7.54-3.63-15.03-4.59-22.66-.6-4.75,.03-9.79,.87-14.56,.88-5,4-8.72,8.41-11.54,3.26-2.08,5.97-5,9.03-7.42,16.68-13.18,35.8-21.33,56.09-27C98.35,4.71,116.43,1.91,134.8,.72c40.35-2.62,79.79,1.83,118.13,14.9,18.41,6.28,35.76,14.72,51.31,26.59,8.36,6.38,11.9,15.15,12.6,25.32,.1,1.45,.01,2.91,.01,4.36Zm-139.83,29.97c0-1.17,.03-1.97,0-2.77-.72-14.61-1.43-29.21-2.18-43.81-.31-6.08-.67-12.15-1.09-18.22-.08-1.21-1.44-2.48,.47-3.43,1.18-.59,2.25-1.76,3.45-1.88,9.9-.96,19.74-.36,29.51,1.53,24.52,4.75,47.26,14.08,68.76,26.63,2.39,1.39,5.02,3.99,7.21,3.67,2.45-.35,4.49-3.4,6.74-5.24,4.26-3.48,7.08-7.42,4.55-13.23-.17-.4-.08-.9-.16-1.35-.49-2.72-1.51-4.87-4.16-6.45-11.82-7.07-24.22-12.87-37.2-17.4-28.44-9.92-57.76-14.87-87.86-15.73-24.37-.69-48.47,1.14-72.25,6.58-19.42,4.44-38.02,10.99-55.07,21.52-2.62,1.62-5.37,3.03-5.15,6.82,.04,.66-.51,1.34-.72,2.03-1.45,4.97-2.16,9.75,2.52,13.66,2.37,1.97,4.52,4.21,6.67,6.43,1.23,1.27,2.2,1.24,3.72,.31,23.64-14.36,48.9-24.74,76-30.44,7.47-1.57,15.04-2.53,22.69-.79,2.15,.49,3.12,1.48,3.07,3.7-.06,2.27,.05,4.54,.16,6.81,.88,17.69,1.78,35.38,2.69,53.06,.14,2.61,.41,5.21,.64,7.99h26.97Zm.77-65.85c1.1,21.96,2.19,43.66,3.29,65.59,35.85-3.32,68.84-13.44,98.34-34.6-1.02-.71-1.58-1.16-2.2-1.53-23.27-14.12-48.02-24.43-74.99-28.91-7.97-1.32-16.02-1.97-24.45-.55ZM46.1,65.54c29.63,22.75,63.32,32.93,99.72,36.16-.35-7.95-.64-15.47-1.01-22.98-.68-13.78-1.49-27.56-2.03-41.35-.1-2.67-1.17-3.7-3.5-3.62-4.79,.15-9.65,.05-14.36,.8-16.06,2.55-31.28,7.93-46.21,14.21-11.14,4.69-21.94,10.04-32.59,16.79Zm49.01,129.26c23.14,11.06,39.31,6.19,45.25-.26-8.98-5.53-17.94-11.04-26.39-16.25,1.24-2.52,2.54-4.8,3.49-7.22,.9-2.31-.4-4.47-2.85-4.27-2.25,.18-4.58,1.15-6.56,2.32-1.3,.76-2.03,2.49-2.97,3.72-4.09-2.52-7.4-4.56-10.75-6.63,1.52-3.89-.35-6.25-3.11-8.5-1.63-1.32-2.56-1.07-3.59,.44-.63,.92-1.25,1.84-1.89,2.78-7.77-4.75-15.29-9.35-23.17-14.17,0,1.82-.07,3,.01,4.17,.82,11.42,6,20.89,13.72,28.92,2.93,3.05,3.46,5.54,2.47,9.55-1.26,5.14-2.75,10.61,.76,15.72,2.94,4.27,5.28,3.83,7.43,.37,2.38-3.84,5.48-7.23,8.16-10.69Zm161.88-52.48c-21.13,18.28-42.1,36.43-63.62,55.05,18.86,3.47,35.17-.12,48.75-12.97,12.06-11.42,16.53-25.76,14.87-42.08Zm46.06-67.66c-.31-.31-.62-.63-.93-.94-.94,.36-2.03,.51-2.78,1.11-3.95,3.12-7.69,6.51-11.73,9.51-4.65,3.46-9.43,6.79-14.35,9.85-4.19,2.6-8.51,5.09-13.04,6.99-11.31,4.73-23.13,7.78-35.07,10.59-14.84,3.5-29.87,4.89-45,5.82-3.51,.22-7.02,.5-10.54,.54-7.13,.08-14.28,.28-21.4-.08-7.89-.4-15.75-1.29-23.61-2.12-6.23-.66-12.58-.98-18.62-2.46-10.46-2.57-20.8-5.71-31.07-9-14.6-4.68-28.12-11.62-40.54-20.63-5.54-4.02-11-8.15-16.5-12.23,.03,.88,.31,1.76,.89,2.33,2.13,2.08,4.27,4.15,6.56,6.05,11.36,9.46,23.82,17.12,37.44,22.91,19.48,8.28,39.6,14.06,60.77,15.75,7.92,.63,15.85,1.1,23.77,1.66,2.88,.2,5.76,.59,8.64,.68,5.61,.19,11.25,.55,16.85,.25,6.72-.36,13.41-1.35,20.12-2.02,6-.6,12.08-.73,18-1.77,9.32-1.65,18.63-3.52,27.77-5.96,12.42-3.33,24.78-7.07,36-13.58,8.96-5.19,17.83-10.6,24.83-18.46,1.31-1.48,2.37-3.18,3.55-4.78ZM162.14,230.61c.26,.04,.54,.02,.76,.13,4.53,2.11,9.08,4.17,13.57,6.37,1.79,.88,2.53,.16,3.36-1.35,1.68-3.04-.62-5.6-4.12-7.34-2.03-1-4.13-1.86-5.9-2.66,1.27-2.6,2.81-4.74,3.32-7.1,.5-2.31,.61-5.13-.29-7.23-1.46-3.41-5.99-4.74-9.79-3.69-3.85,1.06-6.06,3.93-6.09,8.04-.03,6.44-.08,12.88,.05,19.32,.03,1.35,.67,2.75,1.31,3.99,.3,.57,1.25,1.02,1.95,1.08,.32,.03,.98-.97,1.06-1.56,.35-2.63,.55-5.29,.81-8Z"/><path d="M121.49,322.05v-30.22c4.86,0,9.57-.21,14.24,.07,3.54,.21,6.54,1.84,7.54,5.62,1.01,3.82-.1,6.96-3.15,8.82,1.28,1.86,3.07,3.5,3.64,5.49,1.53,5.36-1.88,9.74-7.9,10.15-4.69,.32-9.41,.06-14.38,.06Zm5.02-4.8c3.09,0,5.9,.1,8.69-.03,2.18-.1,3.51-1.41,3.68-3.62,.16-2.18-.88-3.93-3.04-4.14-3.08-.3-6.22-.08-9.32-.08v7.87Zm.02-13.08c2.93,0,5.63,.11,8.32-.03,2.2-.11,3.48-1.45,3.52-3.69,.04-2.24-1.24-3.67-3.39-3.84-2.75-.21-5.54-.05-8.45-.05v7.61Z"/><path d="M149.91,291.94c3.29-1,5.19,.23,6.85,2.73,2.14,3.23,4.67,6.21,7.26,9.61,2.58-3.37,5.18-6.39,7.34-9.7,1.68-2.58,3.69-3.5,6.8-2.69v30.12h-4.83v-22.1c-3.37,4.33-6.23,8-9.3,11.95-3.02-3.87-5.88-7.55-9.15-11.74v21.83h-4.97v-30Z"/><path d="M216.67,322.01h-5.03c-.05-.88-.22-1.68-.12-2.45,.74-5.68-.92-10.6-4.09-15.3-2.61-3.88-4.72-8.1-7.1-12.26q5.48-.93,7.76,3.25c1.91,3.5,3.83,6.99,5.97,10.9,2.09-3.8,3.99-7.27,5.9-10.74q2.36-4.3,7.89-3.44c-2.78,4.87-5.33,9.77-8.31,14.39-2.21,3.44-3.32,6.95-2.89,11.01,.15,1.43,.02,2.89,.02,4.64Z"/><path d="M190.68,317.35h14.15v4.63h-18.94v-30.11h4.79v25.48Z"/><path class="cls-1" d="M162.14,230.61c-.26,2.71-.46,5.36-.81,8-.08,.59-.74,1.59-1.06,1.56-.69-.06-1.65-.51-1.95-1.08-.64-1.23-1.28-2.64-1.31-3.99-.13-6.44-.09-12.88-.05-19.32,.02-4.11,2.24-6.98,6.09-8.04,3.8-1.05,8.34,.28,9.79,3.69,.9,2.1,.79,4.92,.29,7.23-.51,2.37-2.06,4.51-3.32,7.1,1.77,.79,3.87,1.66,5.9,2.66,3.5,1.73,5.8,4.3,4.12,7.34-.84,1.52-1.57,2.23-3.36,1.35-4.49-2.2-9.04-4.27-13.57-6.37-.22-.1-.5-.09-.76-.13Zm-.27-8.99c2.86-1.58,5.04-3.31,5.64-6.36,.09-.48-.29-1.4-.68-1.56-2.84-1.16-4.95,.34-4.96,3.44,0,1.35,0,2.7,0,4.47Z"/><path d="M161.87,221.62c0-1.77,0-3.12,0-4.47,.01-3.1,2.12-4.61,4.96-3.44,.39,.16,.77,1.09,.68,1.56-.6,3.04-2.78,4.77-5.64,6.36Z"/></g></svg>